<?xml version="1.0" encoding="utf-8"?>
<!-- Generator: Adobe Illustrator 22.0.1, SVG Export Plug-In . SVG Version: 6.00 Build 0)  -->
<svg version="1.1" id="Capa_1" xmlns="http://www.w3.org/2000/svg" xmlns:xlink="http://www.w3.org/1999/xlink" x="0px" y="0px"
	 width="60.9px" height="67.7px" viewBox="0 0 60.9 67.7" style="enable-background:new 0 0 60.9 67.7;" xml:space="preserve">
<style type="text/css">
	.st0{fill:#00005A;}
	.st1{fill:#FF9100;}
</style>
<path class="st0" d="M49.6,23.3H39.5v6h10.1c3,0,5.3,1.5,5.3,2.9v26.6c0,1.3-2.3,2.9-5.3,2.9H11.3c-3,0-5.3-1.5-5.3-2.9V32.2
	c0-1.3,2.3-2.9,5.3-2.9h10.1v-6H11.3C5,23.3,0,27.2,0,32.2v26.6c0,5,5,8.9,11.3,8.9h38.2c6.4,0,11.3-3.9,11.3-8.9V32.2
	C60.9,27.2,55.9,23.3,49.6,23.3z"/>
<path class="st1" d="M21.6,15c0.8,0,1.5-0.3,2.1-0.9l3.8-3.8v13v6v11.5c0,1.7,1.3,3,3,3s3-1.3,3-3V29.3v-6V10.1l4,4
	c0.6,0.6,1.4,0.9,2.1,0.9s1.5-0.3,2.1-0.9c1.2-1.2,1.2-3.1,0-4.2l-9-9C32.1,0.3,31.3,0,30.6,0c0,0,0,0,0,0s0,0,0,0
	c-0.8,0-1.5,0.3-2.1,0.9l-9,9c-1.2,1.2-1.2,3.1,0,4.2C20,14.7,20.8,15,21.6,15z"/>
</svg>
