<?xml version="1.0" encoding="utf-8"?>
<!-- Generator: Adobe Illustrator 22.0.1, SVG Export Plug-In . SVG Version: 6.00 Build 0)  -->
<svg version="1.1" id="Capa_1" xmlns="http://www.w3.org/2000/svg" xmlns:xlink="http://www.w3.org/1999/xlink" x="0px" y="0px"
	 width="437.9px" height="490.1px" viewBox="0 0 437.9 490.1" style="enable-background:new 0 0 437.9 490.1;" xml:space="preserve"
	>
<style type="text/css">
	.st0{fill:#FF9100;}
	.st1{fill:#00005A;}
</style>
<path class="st0" d="M197.7,341c3.7,3,8.7,3.7,13,1.6c4.3-2,7-6.3,7-11.1v-83.4c78,0.3,131.9,5.9,197.2,121.2
	c2.2,3.9,6.3,6.2,10.7,6.2c1,0,2.1-0.1,3.1-0.4c5.4-1.4,9.1-6.3,9.1-11.8v-9.7c0.5-81.5,1.4-249.5-220.1-257.5V12.3
	c0-4.7-2.7-9.1-7-11.1s-9.4-1.4-13,1.6L4.5,162.3c-2.8,2.3-4.5,5.8-4.5,9.4c0,3.7,1.6,7.1,4.4,9.4L197.7,341z M193.2,38.3v69.8
	c0,6.7,5.4,12.2,12.1,12.3c92.1,0.9,151.8,29,182.6,86.1c19.4,35.8,24.1,78.1,25.2,113.6c-62.9-91.3-122-96.4-207.7-96.5l0,0
	c-3.2,0-6.4,1.3-8.7,3.6s-3.6,5.4-3.6,8.7v69.7L31.5,171.7L193.2,38.3z"/>
<path class="st1" d="M437.9,477.9v-53.8c0-6.8-5.5-12.3-12.3-12.3s-12.3,5.5-12.3,12.3v41.6H27V251.9c0-6.8-5.5-12.3-12.3-12.3
	s-12.3,5.5-12.3,12.3v225.9c0,6.8,5.5,12.3,12.3,12.3h410.9C432.4,490.1,437.9,484.6,437.9,477.9z"/>
</svg>
